<mxfile host="app.diagrams.net" modified="2024-05-23T08:10:25.617Z" agent="Mozilla/5.0 (Windows NT 10.0; Win64; x64) AppleWebKit/537.36 (KHTML, like Gecko) Chrome/125.0.0.0 Safari/537.36 Edg/125.0.0.0" version="24.4.6" etag="x7GF6vE5C3CO713VRhd4" type="github">
  <diagram name="第 1 页" id="BfU3-Cgoz88RCHdPIyy5">
    <mxGraphModel>
      <root>
        <mxCell id="0" />
        <mxCell id="1" parent="0" />
      </root>
    </mxGraphModel>
  </diagram>
</mxfile>
